<svg xmlns="http://www.w3.org/2000/svg" xmlns:xlink="http://www.w3.org/1999/xlink" width="1080" zoomAndPan="magnify" viewBox="0 0 810 809.999993" height="1080" preserveAspectRatio="xMidYMid meet" version="1.0"><defs><filter x="0%" y="0%" width="100%" height="100%" id="369f206fc5"><feColorMatrix values="0 0 0 0 1 0 0 0 0 1 0 0 0 0 1 0 0 0 1 0" color-interpolation-filters="sRGB"/></filter><mask id="4fd7750709"><g filter="url(#369f206fc5)"><rect x="-81" width="972" fill="#000000" y="-80.999999" height="971.999992" fill-opacity="0.2588"/></g></mask><clipPath id="878acc5d33"><path d="M 3.109375 1 L 300.109375 1 L 300.109375 470 L 3.109375 470 Z M 3.109375 1 " clip-rule="nonzero"/></clipPath><clipPath id="f89eeb877a"><rect x="0" width="303" y="0" height="508"/></clipPath><clipPath id="b6142ce7ae"><path d="M 262.238281 162 L 547.988281 162 L 547.988281 614 L 262.238281 614 Z M 262.238281 162 " clip-rule="nonzero"/></clipPath><clipPath id="3ebc537ac0"><path d="M 266.183594 162 L 547.433594 162 L 547.433594 626.25 L 266.183594 626.25 Z M 266.183594 162 " clip-rule="nonzero"/></clipPath><clipPath id="f446d5f593"><path d="M 266.183594 169 L 475 169 L 475 626.25 L 266.183594 626.25 Z M 266.183594 169 " clip-rule="nonzero"/></clipPath></defs><g mask="url(#4fd7750709)"><g transform="matrix(1, 0, 0, 1, 248, 151)"><g clip-path="url(#f89eeb877a)"><path fill="#000000" d="M 218.753906 476.371094 C 218.753906 492.007812 189.03125 504.683594 152.363281 504.683594 C 115.695312 504.683594 85.972656 492.007812 85.972656 476.371094 C 85.972656 460.742188 115.695312 448.054688 152.363281 448.054688 C 189.03125 448.054688 218.753906 460.742188 218.753906 476.371094 " fill-opacity="1" fill-rule="nonzero"/><path fill="#000000" d="M 217.402344 469.519531 C 217.402344 485.15625 187.980469 497.832031 151.6875 497.832031 C 115.394531 497.832031 85.972656 485.15625 85.972656 469.519531 C 85.972656 453.878906 115.394531 441.203125 151.6875 441.203125 C 187.980469 441.203125 217.402344 453.878906 217.402344 469.519531 " fill-opacity="1" fill-rule="nonzero"/><g clip-path="url(#878acc5d33)"><path fill="#000000" d="M 154.21875 1.113281 C 153.34375 1.113281 152.476562 1.164062 151.613281 1.1875 C 150.738281 1.164062 149.875 1.113281 149 1.113281 C 68.394531 1.113281 3.042969 69.136719 3.042969 153.039062 C 3.042969 167.359375 8.605469 200.464844 16.957031 214.203125 L 151.613281 469.519531 L 286.261719 214.203125 C 294.613281 200.464844 300.175781 167.359375 300.175781 153.039062 C 300.175781 69.136719 234.835938 1.113281 154.21875 1.113281 " fill-opacity="1" fill-rule="nonzero"/></g><path fill="#ffffff" d="M 232.21875 136.113281 C 232.21875 180.5625 196.125 216.59375 151.613281 216.59375 C 107.09375 216.59375 70.996094 180.5625 70.996094 136.113281 C 70.996094 91.660156 107.09375 55.628906 151.613281 55.628906 C 196.125 55.628906 232.21875 91.660156 232.21875 136.113281 " fill-opacity="1" fill-rule="nonzero"/></g></g></g><path fill="#f9a72b" d="M 469.714844 620.164062 C 469.714844 635.222656 441.117188 647.425781 405.839844 647.425781 C 370.558594 647.425781 341.960938 635.222656 341.960938 620.164062 C 341.960938 605.117188 370.558594 592.902344 405.839844 592.902344 C 441.117188 592.902344 469.714844 605.117188 469.714844 620.164062 " fill-opacity="1" fill-rule="nonzero"/><path fill="#fcd24f" d="M 468.410156 613.566406 C 468.410156 628.625 440.105469 640.828125 405.1875 640.828125 C 370.265625 640.828125 341.960938 628.625 341.960938 613.566406 C 341.960938 598.507812 370.265625 586.304688 405.1875 586.304688 C 440.105469 586.304688 468.410156 598.507812 468.410156 613.566406 " fill-opacity="1" fill-rule="nonzero"/><g clip-path="url(#b6142ce7ae)"><path fill="#bdbdbd" d="M 407.621094 162.574219 C 406.78125 162.574219 405.949219 162.621094 405.117188 162.640625 C 404.273438 162.621094 403.441406 162.574219 402.601562 162.574219 C 325.046875 162.574219 262.171875 228.070312 262.171875 308.851562 C 262.171875 322.636719 267.523438 354.515625 275.558594 367.742188 L 405.117188 613.566406 L 534.664062 367.742188 C 542.699219 354.515625 548.050781 322.636719 548.050781 308.851562 C 548.050781 228.070312 485.183594 162.574219 407.621094 162.574219 " fill-opacity="1" fill-rule="nonzero"/></g><path fill="#ffffff" d="M 482.671875 292.554688 C 482.671875 335.351562 447.941406 370.042969 405.117188 370.042969 C 362.28125 370.042969 327.554688 335.351562 327.554688 292.554688 C 327.554688 249.753906 362.28125 215.0625 405.117188 215.0625 C 447.941406 215.0625 482.671875 249.753906 482.671875 292.554688 " fill-opacity="1" fill-rule="nonzero"/><g clip-path="url(#3ebc537ac0)"><path fill="#e8ac10" d="M 406.820312 162 C 390.84375 162 375.472656 164.679688 361.152344 169.609375 C 305.996094 188.546875 266.332031 240.949219 266.332031 302.585938 C 266.332031 322.457031 270.476562 341.371094 277.910156 358.484375 C 290.398438 397.542969 322.933594 475.40625 406.820312 626.25 C 434.902344 575.761719 457.230469 533.4375 474.972656 498.035156 C 510.238281 427.648438 527.414062 384.488281 535.726562 358.511719 C 543.164062 341.371094 547.308594 322.457031 547.308594 302.585938 C 547.304688 224.949219 484.410156 162 406.820312 162 Z M 406.820312 378.523438 C 398.132812 378.523438 389.804688 377.066406 382.042969 374.375 C 352.488281 364.09375 331.257812 335.988281 331.257812 302.917969 C 331.257812 282.347656 339.449219 263.738281 352.753906 250.109375 C 366.46875 236.035156 385.625 227.300781 406.820312 227.300781 C 448.550781 227.300781 482.378906 261.160156 482.378906 302.917969 C 482.378906 344.667969 448.550781 378.523438 406.820312 378.523438 Z M 406.820312 378.523438 " fill-opacity="1" fill-rule="nonzero"/></g><g clip-path="url(#f446d5f593)"><path fill="#b8891f" d="M 474.972656 498.035156 C 457.230469 533.4375 434.902344 575.761719 406.820312 626.25 C 322.933594 475.40625 290.398438 397.542969 277.910156 358.484375 C 270.476562 341.371094 266.332031 322.457031 266.332031 302.585938 C 266.332031 240.949219 305.996094 188.546875 361.152344 169.609375 C 356.738281 187.421875 351.8125 215.5625 352.753906 250.109375 C 339.449219 263.734375 331.257812 282.347656 331.257812 302.917969 C 331.257812 335.988281 352.492188 364.09375 382.042969 374.375 C 400.636719 414.652344 429.929688 456.90625 474.972656 498.035156 Z M 474.972656 498.035156 " fill-opacity="1" fill-rule="nonzero"/></g></svg>